<svg xmlns="http://www.w3.org/2000/svg" xmlns:xlink="http://www.w3.org/1999/xlink" width="32" height="32" viewBox="0 0 32 32"><defs><linearGradient id="a" y1="-41.23" x2="1" y2="-41.23" gradientUnits="objectBoundingBox"><stop offset="0" stop-color="#eca930"/><stop offset="1" stop-color="#e16044"/></linearGradient></defs><path d="M32,16A16,16,0,1,1,16,0,16,16,0,0,1,32,16Zm0,0" fill="url(#a)"/><g transform="translate(6.447 6.384)"><path d="M98.106,102.731H90.125A5.632,5.632,0,0,1,84.5,97.106V89.125A5.632,5.632,0,0,1,90.125,83.5h7.981a5.631,5.631,0,0,1,5.625,5.625v7.227a.836.836,0,1,1-1.672,0V89.125a3.957,3.957,0,0,0-3.953-3.953H90.125a3.957,3.957,0,0,0-3.953,3.953v7.981a3.957,3.957,0,0,0,3.953,3.953h7.981a3.926,3.926,0,0,0,3.151-1.566.836.836,0,1,1,1.332,1.011A5.585,5.585,0,0,1,98.106,102.731Zm0,0" transform="translate(-84.5 -83.5)" fill="#fff"/><path d="M168.476,172.7a5.226,5.226,0,1,1,5.226-5.226A5.232,5.232,0,0,1,168.476,172.7Zm0-8.78a3.554,3.554,0,1,0,3.554,3.554A3.558,3.558,0,0,0,168.476,163.922Zm0,0" transform="translate(-158.86 -157.86)" fill="#fff"/><path d="M338.574,149.966a.744.744,0,1,1-.744-.744A.744.744,0,0,1,338.574,149.966Zm0,0" transform="translate(-323.006 -145.559)" fill="#fff"/></g></svg>