<svg xmlns="http://www.w3.org/2000/svg" xmlns:xlink="http://www.w3.org/1999/xlink" width="28.871" height="28.871" viewBox="0 0 28.871 28.871">
  <defs>
    <linearGradient id="linear-gradient" x1="0.5" x2="0.5" y2="1" gradientUnits="objectBoundingBox">
      <stop offset="0" stop-color="#ff4b1c"/>
      <stop offset="1" stop-color="#eba434"/>
    </linearGradient>
  </defs>
  <path id="icons8-linkedin" d="M7.437,4A3.448,3.448,0,0,0,4,7.437v22a3.448,3.448,0,0,0,3.437,3.437h22a3.448,3.448,0,0,0,3.437-3.437v-22A3.448,3.448,0,0,0,29.434,4Zm0,1.375h22A2.052,2.052,0,0,1,31.5,7.437v22A2.052,2.052,0,0,1,29.434,31.5h-22a2.052,2.052,0,0,1-2.062-2.062v-22A2.052,2.052,0,0,1,7.437,5.375ZM10.874,8.82a2.969,2.969,0,0,0-1.932.647,2.266,2.266,0,0,0-.81,1.728,2.536,2.536,0,0,0,2.529,2.383h0a.679.679,0,0,0,.209.036,2.573,2.573,0,0,0,2.742-2.421q0-.018,0-.036A2.6,2.6,0,0,0,10.874,8.82Zm0,1.359c.957,0,1.335.427,1.376,1.034-.008.589-.372,1.045-1.376,1.045-.952,0-1.383-.488-1.383-1.062a.842.842,0,0,1,.325-.689A1.623,1.623,0,0,1,10.874,10.179ZM8.812,14.311A.687.687,0,0,0,8.124,15V28.059a.687.687,0,0,0,.687.687h4.125a.687.687,0,0,0,.687-.687V15a.687.687,0,0,0-.687-.687Zm6.187,0a.687.687,0,0,0-.687.687V28.059a.687.687,0,0,0,.687.687h4.125a.687.687,0,0,0,.687-.687V21.185a2.633,2.633,0,0,1,.43-1.509,1.377,1.377,0,0,1,1.277-.583,1.488,1.488,0,0,1,1.308.608,2.544,2.544,0,0,1,.423,1.484v6.874a.687.687,0,0,0,.687.687h4.125a.687.687,0,0,0,.687-.687V20.678a6.719,6.719,0,0,0-1.637-4.739,5.411,5.411,0,0,0-3.992-1.627,6,6,0,0,0-3.308.979V15a.687.687,0,0,0-.687-.687ZM9.5,15.686h2.75V27.372H9.5Zm6.187,0h2.75v1.073a.687.687,0,0,0,1.237.414,4.318,4.318,0,0,1,3.446-1.486,3.988,3.988,0,0,1,2.994,1.2,5.32,5.32,0,0,1,1.259,3.794v6.694h-2.75V21.185a3.83,3.83,0,0,0-.694-2.305,2.991,2.991,0,0,0-2.387-1.161,2.889,2.889,0,0,0-2.407,1.143,3.893,3.893,0,0,0-.7,2.324v6.187h-2.75Z" transform="translate(-4 -4)" fill="url(#linear-gradient)"/>
</svg>
