<svg xmlns="http://www.w3.org/2000/svg" xmlns:xlink="http://www.w3.org/1999/xlink" width="32" height="32" viewBox="0 0 32 32"><defs><linearGradient id="a" y1="-41.23" x2="1" y2="-41.23" gradientUnits="objectBoundingBox"><stop offset="0" stop-color="#eca930"/><stop offset="1" stop-color="#e16044"/></linearGradient></defs><path d="M32,16A16,16,0,1,1,16,0,16,16,0,0,1,32,16Zm0,0" fill="url(#a)"/><g transform="translate(8.094 7.094)"><path d="M19.422,19.156h0V12.949c0-3.036-.654-5.375-4.2-5.375A3.685,3.685,0,0,0,11.9,9.4h-.049V7.857H8.489v11.3h3.5V13.561c0-1.473.279-2.9,2.1-2.9,1.8,0,1.824,1.681,1.824,2.992v5.5Z" transform="translate(-2.503 -2.234)" fill="#fff"/><path d="M.4,7.977H3.9v11.3H.4Z" transform="translate(-0.117 -2.352)" fill="#fff"/><path d="M2.032,0A2.042,2.042,0,1,0,4.064,2.032,2.033,2.033,0,0,0,2.032,0Z" fill="#fff"/></g></svg>