<svg xmlns="http://www.w3.org/2000/svg" xmlns:xlink="http://www.w3.org/1999/xlink" width="32" height="32" viewBox="0 0 32 32"><defs><linearGradient id="a" y1="-41.23" x2="1" y2="-41.23" gradientUnits="objectBoundingBox"><stop offset="0" stop-color="#eca930"/><stop offset="1" stop-color="#e16044"/></linearGradient></defs><path d="M32,16A16,16,0,1,1,16,0,16,16,0,0,1,32,16Zm0,0" fill="url(#a)"/><path d="M10.515,15.7h-.006c-.635,0-6.245-.056-7.835-.485A3.251,3.251,0,0,1,.387,12.928,23.857,23.857,0,0,1,0,8.12,24.306,24.306,0,0,1,.386,3.276v0A3.319,3.319,0,0,1,2.672.97l.008,0A57.806,57.806,0,0,1,10.509.5h.011c.636,0,6.262.056,7.837.486a3.25,3.25,0,0,1,2.285,2.282,23.145,23.145,0,0,1,.387,4.87,23.923,23.923,0,0,1-.385,4.8v0a3.251,3.251,0,0,1-2.289,2.286h0a57.857,57.857,0,0,1-7.829.468ZM1.974,3.7a23.505,23.505,0,0,0-.33,4.412v.022A22.087,22.087,0,0,0,1.974,12.5,1.6,1.6,0,0,0,3.1,13.627a55,55,0,0,0,7.413.429,57.228,57.228,0,0,0,7.415-.413,1.6,1.6,0,0,0,1.126-1.124,22.163,22.163,0,0,0,.33-4.372c0-.009,0-.017,0-.026A21.391,21.391,0,0,0,19.057,3.7v0a1.6,1.6,0,0,0-1.129-1.127,54.793,54.793,0,0,0-7.413-.429A57.305,57.305,0,0,0,3.1,2.556,1.648,1.648,0,0,0,1.974,3.7ZM19.85,12.73h0Zm-11.429-1.3V4.772L14.172,8.1Zm0,0" transform="translate(5.501 7.913)" fill="#fff"/></svg>