<svg xmlns="http://www.w3.org/2000/svg" xmlns:xlink="http://www.w3.org/1999/xlink" width="30.246" height="30.246" viewBox="0 0 30.246 30.246">
  <defs>
    <linearGradient id="linear-gradient" x1="0.5" x2="0.5" y2="1" gradientUnits="objectBoundingBox">
      <stop offset="0" stop-color="#ff4b1c"/>
      <stop offset="1" stop-color="#eba434"/>
    </linearGradient>
  </defs>
  <path id="icons8-instagram_new" d="M11.936,3A8.947,8.947,0,0,0,3,11.936V24.31a8.947,8.947,0,0,0,8.936,8.936H24.31a8.947,8.947,0,0,0,8.936-8.936V11.936A8.947,8.947,0,0,0,24.31,3Zm0,1.375H24.31a7.551,7.551,0,0,1,7.561,7.561V24.31a7.551,7.551,0,0,1-7.561,7.561H11.936A7.551,7.551,0,0,1,4.375,24.31V11.936A7.551,7.551,0,0,1,11.936,4.375ZM26.372,8.5a1.375,1.375,0,1,0,1.375,1.375A1.375,1.375,0,0,0,26.372,8.5Zm-8.249,2.062a7.561,7.561,0,1,0,7.561,7.561A7.572,7.572,0,0,0,18.123,10.561Zm0,1.375a6.187,6.187,0,1,1-6.187,6.187A6.176,6.176,0,0,1,18.123,11.936Z" transform="translate(-3 -3)" fill="url(#linear-gradient)"/>
</svg>
